<?xml version="1.0" encoding="UTF-8"?>
<svg width="249px" height="85px" viewBox="0 0 249 85" version="1.1" xmlns="http://www.w3.org/2000/svg" xmlns:xlink="http://www.w3.org/1999/xlink">
    <!-- Generator: Sketch 43.2 (39069) - http://www.bohemiancoding.com/sketch -->
    <title>Group 2</title>
    <desc>Created with Sketch.</desc>
    <defs>
        <polygon id="path-1" points="0 83.7956842 242.075713 83.7956842 242.075713 0.000596491228 0 0.000596491228"></polygon>
        <radialGradient cx="49.0535169%" cy="50.8659014%" fx="49.0535169%" fy="50.8659014%" r="262.043947%" gradientTransform="translate(0.490535,0.508659),scale(0.996739,1.000000),translate(-0.490535,-0.508659)" id="radialGradient-3">
            <stop stop-color="#01579B" offset="0%"></stop>
            <stop stop-color="#03A9F4" offset="100%"></stop>
        </radialGradient>
        <radialGradient cx="48.9587821%" cy="-78.1224881%" fx="48.9587821%" fy="-78.1224881%" r="288.884632%" gradientTransform="translate(0.489588,-0.781225),scale(0.996751,1.000000),translate(-0.489588,0.781225)" id="radialGradient-4">
            <stop stop-color="#01579B" offset="0%"></stop>
            <stop stop-color="#03A9F4" offset="100%"></stop>
        </radialGradient>
        <radialGradient cx="179.01775%" cy="51.0478026%" fx="179.01775%" fy="51.0478026%" r="290.897714%" gradientTransform="translate(1.790178,0.510478),scale(0.996728,1.000000),translate(-1.790178,-0.510478)" id="radialGradient-5">
            <stop stop-color="#01579B" offset="0%"></stop>
            <stop stop-color="#03A9F4" offset="100%"></stop>
        </radialGradient>
        <radialGradient cx="-82.6784497%" cy="51.0715081%" fx="-82.6784497%" fy="51.0715081%" r="297.142139%" gradientTransform="translate(-0.826784,0.510715),scale(0.996749,1.000000),translate(0.826784,-0.510715)" id="radialGradient-6">
            <stop stop-color="#01579B" offset="0%"></stop>
            <stop stop-color="#03A9F4" offset="100%"></stop>
        </radialGradient>
        <radialGradient cx="48.6506962%" cy="183.287378%" fx="48.6506962%" fy="183.287378%" r="298.742771%" gradientTransform="translate(0.486507,1.832874),scale(0.996801,1.000000),translate(-0.486507,-1.832874)" id="radialGradient-7">
            <stop stop-color="#01579B" offset="0%"></stop>
            <stop stop-color="#03A9F4" offset="100%"></stop>
        </radialGradient>
        <radialGradient cx="190.302468%" cy="-90.3016345%" fx="190.302468%" fy="-90.3016345%" r="316.345079%" gradientTransform="translate(1.903025,-0.903016),scale(0.996749,1.000000),translate(-1.903025,0.903016)" id="radialGradient-8">
            <stop stop-color="#01579B" offset="0%"></stop>
            <stop stop-color="#03A9F4" offset="100%"></stop>
        </radialGradient>
        <radialGradient cx="-94.1844639%" cy="-93.0238711%" fx="-94.1844639%" fy="-93.0238711%" r="322.480414%" gradientTransform="translate(-0.941845,-0.930239),scale(0.996740,1.000000),translate(0.941845,0.930239)" id="radialGradient-9">
            <stop stop-color="#01579B" offset="0%"></stop>
            <stop stop-color="#03A9F4" offset="100%"></stop>
        </radialGradient>
        <radialGradient cx="193.762082%" cy="194.834396%" fx="193.762082%" fy="194.834396%" r="324.366458%" gradientTransform="translate(1.937621,1.948344),scale(0.996750,1.000000),translate(-1.937621,-1.948344)" id="radialGradient-10">
            <stop stop-color="#01579B" offset="0%"></stop>
            <stop stop-color="#03A9F4" offset="100%"></stop>
        </radialGradient>
        <radialGradient cx="-98.8%" cy="198.8%" fx="-98.8%" fy="198.8%" r="332.8%" gradientTransform="translate(-0.988000,1.988000),scale(0.996751,1.000000),translate(0.988000,-1.988000)" id="radialGradient-11">
            <stop stop-color="#01579B" offset="0%"></stop>
            <stop stop-color="#03A9F4" offset="100%"></stop>
        </radialGradient>
        <radialGradient cx="48.714958%" cy="-286.977658%" fx="48.714958%" fy="-286.977658%" r="386.955963%" gradientTransform="translate(0.487150,-2.869777),scale(0.996698,1.000000),translate(-0.487150,2.869777)" id="radialGradient-12">
            <stop stop-color="#01579B" offset="0%"></stop>
            <stop stop-color="#03A9F4" offset="100%"></stop>
        </radialGradient>
        <radialGradient cx="386.627907%" cy="51.2790698%" fx="386.627907%" fy="51.2790698%" r="386.976744%" gradientTransform="translate(3.866279,0.512791),scale(0.996751,1.000000),translate(-3.866279,-0.512791)" id="radialGradient-13">
            <stop stop-color="#01579B" offset="0%"></stop>
            <stop stop-color="#03A9F4" offset="100%"></stop>
        </radialGradient>
        <radialGradient cx="48.5258996%" cy="409.30911%" fx="48.5258996%" fy="409.30911%" r="408.798925%" gradientTransform="translate(0.485259,4.093091),scale(0.995539,1.000000),translate(-0.485259,-4.093091)" id="radialGradient-14">
            <stop stop-color="#01579B" offset="0%"></stop>
            <stop stop-color="#03A9F4" offset="100%"></stop>
        </radialGradient>
        <radialGradient cx="-308.813851%" cy="51.4779233%" fx="-308.813851%" fy="51.4779233%" r="408.813851%" gradientTransform="translate(-3.088139,0.514779),scale(0.996751,1.000000),translate(3.088139,-0.514779)" id="radialGradient-15">
            <stop stop-color="#01579B" offset="0%"></stop>
            <stop stop-color="#03A9F4" offset="100%"></stop>
        </radialGradient>
        <radialGradient cx="237.783358%" cy="-318.691562%" fx="237.783358%" fy="-318.691562%" r="423.403342%" gradientTransform="translate(2.377834,-3.186916),scale(0.996765,1.000000),translate(-2.377834,3.186916)" id="radialGradient-16">
            <stop stop-color="#01579B" offset="0%"></stop>
            <stop stop-color="#03A9F4" offset="100%"></stop>
        </radialGradient>
        <radialGradient cx="420.588027%" cy="-137.085038%" fx="420.588027%" fy="-137.085038%" r="425.575391%" gradientTransform="translate(4.205880,-1.370850),scale(0.996751,1.000000),translate(-4.205880,1.370850)" id="radialGradient-17">
            <stop stop-color="#01579B" offset="0%"></stop>
            <stop stop-color="#03A9F4" offset="100%"></stop>
        </radialGradient>
        <radialGradient cx="-144.386502%" cy="-328.326562%" fx="-144.386502%" fy="-328.326562%" r="434.464596%" gradientTransform="translate(-1.443865,-3.283266),scale(0.996766,1.000000),translate(1.443865,3.283266)" id="radialGradient-18">
            <stop stop-color="#01579B" offset="0%"></stop>
            <stop stop-color="#03A9F4" offset="100%"></stop>
        </radialGradient>
        <radialGradient cx="423.154645%" cy="245.591116%" fx="423.154645%" fy="245.591116%" r="426.940771%" gradientTransform="translate(4.231546,2.455911),scale(0.971822,1.000000),translate(-4.231546,-2.455911)" id="radialGradient-19">
            <stop stop-color="#01579B" offset="0%"></stop>
            <stop stop-color="#03A9F4" offset="100%"></stop>
        </radialGradient>
        <radialGradient cx="250.203528%" cy="450.840116%" fx="250.203528%" fy="450.840116%" r="451.56038%" gradientTransform="translate(2.502035,4.508401),scale(0.986654,1.000000),translate(-2.502035,-4.508401)" id="radialGradient-20">
            <stop stop-color="#01579B" offset="0%"></stop>
            <stop stop-color="#03A9F4" offset="100%"></stop>
        </radialGradient>
        <radialGradient cx="-346.856407%" cy="-150.542634%" fx="-346.856407%" fy="-150.542634%" r="452.145843%" gradientTransform="translate(-3.468564,-1.505426),scale(0.996696,1.000000),translate(3.468564,1.505426)" id="radialGradient-21">
            <stop stop-color="#01579B" offset="0%"></stop>
            <stop stop-color="#03A9F4" offset="100%"></stop>
        </radialGradient>
        <radialGradient cx="-359.122565%" cy="257.944435%" fx="-359.122565%" fy="257.944435%" r="466.097363%" gradientTransform="translate(-3.591226,2.579444),scale(0.996822,1.000000),translate(3.591226,-2.579444)" id="radialGradient-22">
            <stop stop-color="#01579B" offset="0%"></stop>
            <stop stop-color="#03A9F4" offset="100%"></stop>
        </radialGradient>
        <radialGradient cx="-157.762238%" cy="458.251748%" fx="-157.762238%" fy="458.251748%" r="465.454545%" gradientTransform="translate(-1.577622,4.582517),scale(0.996751,1.000000),translate(1.577622,-4.582517)" id="radialGradient-23">
            <stop stop-color="#01579B" offset="0%"></stop>
            <stop stop-color="#03A9F4" offset="100%"></stop>
        </radialGradient>
        <radialGradient cx="593.98433%" cy="-494.709824%" fx="593.98433%" fy="-494.709824%" r="625.563588%" gradientTransform="translate(5.939843,-4.947098),scale(0.996793,1.000000),translate(-5.939843,4.947098)" id="radialGradient-24">
            <stop stop-color="#01579B" offset="0%"></stop>
            <stop stop-color="#03A9F4" offset="100%"></stop>
        </radialGradient>
        <radialGradient cx="-548.556306%" cy="-543.62878%" fx="-548.556306%" fy="-543.62878%" r="681.957015%" gradientTransform="translate(-5.485563,-5.436288),scale(0.996767,1.000000),translate(5.485563,5.436288)" id="radialGradient-25">
            <stop stop-color="#01579B" offset="0%"></stop>
            <stop stop-color="#03A9F4" offset="100%"></stop>
        </radialGradient>
        <radialGradient cx="656.275948%" cy="660.889143%" fx="656.275948%" fy="660.889143%" r="696.234056%" gradientTransform="translate(6.562759,6.608891),scale(0.996729,1.000000),translate(-6.562759,-6.608891)" id="radialGradient-26">
            <stop stop-color="#01579B" offset="0%"></stop>
            <stop stop-color="#03A9F4" offset="100%"></stop>
        </radialGradient>
        <radialGradient cx="-607.882883%" cy="705.156933%" fx="-607.882883%" fy="705.156933%" r="749.54955%" gradientTransform="translate(-6.078829,7.051569),scale(1.000000,0.998761),translate(6.078829,-7.051569)" id="radialGradient-27">
            <stop stop-color="#01579B" offset="0%"></stop>
            <stop stop-color="#03A9F4" offset="100%"></stop>
        </radialGradient>
    </defs>
    <g id="Page-1" stroke="none" stroke-width="1" fill="none" fill-rule="evenodd">
        <g id="Main-Copy-3" transform="translate(-296.000000, -255.000000)">
            <g id="Group-2" transform="translate(296.000000, 255.000000)">
                <g id="Page-1" transform="translate(5.500000, 0.500000)">
                    <g id="Group" transform="translate(0.964072, 0.000000)">
                        <path d="M115.950652,55.9999386 L129.599431,55.9999386 C138.930221,55.9999386 141.466443,48.8420439 141.466443,41.8258158 C141.466443,32.3058158 137.008299,27.7948509 128.296281,27.7948509 L115.950652,27.7948509 L115.950652,55.9999386 Z M99.6254964,16.3422193 L135.019281,16.3422193 C150.176969,16.3422193 158.340293,24.860114 158.340293,41.8973947 C158.340293,62.0125702 146.953389,67.4540614 132.893089,67.4540614 L99.6254964,67.4540614 L99.6254964,16.3422193 Z" id="Fill-1" fill="#424242"></path>
                        <mask id="mask-2" fill="white">
                            <use xlink:href="#path-1"></use>
                        </mask>
                        <g id="Clip-4"></g>
                        <polygon id="Fill-3" fill="#424242" mask="url(#mask-2)" points="165.778832 67.4533158 182.815204 67.4533158 182.815204 16.3414737 165.778832 16.3414737"></polygon>
                        <polygon id="Fill-5" fill="#424242" mask="url(#mask-2)" points="193.332844 16.3419211 242.074222 16.3419211 242.074222 27.7960439 210.367725 27.7960439 210.367725 36.6002544 239.855587 36.6002544 239.855587 47.6249035 210.367725 47.6249035 210.367725 67.4537632 193.332844 67.4537632"></polygon>
                    </g>
                </g>
                <g id="DIF-Color" fill-rule="nonzero">
                    <path d="M42.3985075,50.2505814 C37.9526684,50.2644506 34.3360136,46.6858294 34.3173949,42.2544519 C34.2987762,37.8230744 37.8852332,34.2143854 42.3310329,34.1911382 C46.7768326,34.167891 50.4010773,37.7388752 50.4291045,42.1702035 C50.4494182,44.3062458 49.6123161,46.3617691 48.1040797,47.879355 C46.5958432,49.3969408 44.5416086,50.2506774 42.3985075,50.2505814 Z" id="Shape" fill="#000000"></path>
                    <path d="M42.3858209,68.3081395 C39.4267737,68.3132423 36.756721,66.5391211 35.6231659,63.8146814 C34.4896108,61.0902417 35.1163353,57.953332 37.210521,55.8695805 C39.3047067,53.785829 42.4529274,53.1666019 45.1842703,54.3012147 C47.9156133,55.4358275 49.6908671,58.1002893 49.680597,61.0497093 C49.6460417,65.0489994 46.398201,68.2806579 42.3858209,68.3081395 L42.3858209,68.3081395 Z" id="Shape" fill="#000000"></path>
                    <path d="M16.238806,42.1575581 C16.2594502,39.2309891 18.0473824,36.6052179 20.7683582,35.5054221 C23.4893341,34.4056263 26.6070782,35.0485639 28.6668598,37.1342421 C30.7266415,39.2199202 31.3224995,42.3372739 30.1764083,45.0317545 C29.030317,47.7262352 26.368159,49.4667893 23.4320896,49.4412791 C21.5064987,49.4346781 19.6633656,48.6615042 18.3125224,47.2936776 C16.9616792,45.925851 16.2151053,44.0767587 16.238806,42.1575581 L16.238806,42.1575581 Z" id="Shape" fill="#000000"></path>
                    <path d="M68.1776119,42.2207849 C68.1705991,46.1317224 64.9841408,49.2964982 61.0604554,49.2895123 C57.1367699,49.2825264 53.9616749,46.1064242 53.9686794,42.1954867 C53.9756839,38.2845492 57.1621354,35.1197666 61.0858209,35.1267442 C62.9710853,35.1267322 64.778766,35.874944 66.1094666,37.2060667 C67.4401671,38.5371894 68.1843571,40.3416577 68.1776119,42.2207849 Z" id="Shape" fill="#000000"></path>
                    <path d="M42.2970149,30.625 C38.3999794,30.5620081 35.2899488,27.3658309 35.3459044,23.4813464 C35.4018601,19.5968618 38.6026709,16.4910019 42.4999144,16.5395575 C46.3971579,16.5881131 49.5190839,19.7727478 49.4776119,23.6574128 C49.4678517,25.5353981 48.7020189,27.3308416 47.3519672,28.6408446 C46.0019154,29.9508475 44.1807043,30.6657041 42.2970149,30.625 Z" id="Shape" fill="#000000"></path>
                    <path d="M23.4828358,67.6758721 C20.7826608,67.6707359 18.351705,66.0441722 17.3243345,63.5551906 C16.296964,61.0662089 16.8756824,58.2054091 18.7904402,56.3077369 C20.7051979,54.4100647 23.5785797,53.8495676 26.0697686,54.8877927 C28.5609575,55.9260177 30.1789186,58.3583216 30.1686567,61.0497093 C30.1339754,64.7096068 27.1548012,67.6621977 23.4828358,67.6758721 Z" id="Shape" fill="#000000"></path>
                    <path d="M61.1492537,54.4994186 C64.7644974,54.527461 67.6724451,57.4713679 67.6443838,61.0748663 C67.6163224,64.6783647 64.6628779,67.5769235 61.0476331,67.5490255 C57.4323883,67.5211275 54.5243223,64.5773367 54.5522388,60.9738372 C54.5940234,57.3759999 57.5394751,54.4852854 61.1492537,54.4994186 Z" id="Shape" fill="#000000"></path>
                    <path d="M23.4955224,30.0559593 C19.9011479,30.0489687 16.9930159,27.1389547 17.0000247,23.5562583 C17.0070336,19.9735618 19.9265292,17.0748745 23.5209037,17.0818561 C27.1152782,17.0888376 30.0234177,19.9988442 30.0164179,23.5815407 C29.9886475,27.155592 27.0813045,30.0422132 23.4955224,30.0559593 Z" id="Shape" fill="#000000"></path>
                    <path d="M67.441791,23.5436047 C67.441791,27.0355213 64.6018062,29.8662791 61.0985075,29.8662791 C57.5952087,29.8662791 54.7552239,27.0355213 54.7552239,23.5436047 C54.7552239,20.051688 57.5952087,17.2209302 61.0985075,17.2209302 C64.5846409,17.2618949 67.4006929,20.0687975 67.441791,23.5436047 L67.441791,23.5436047 Z" id="Shape" fill="#000000"></path>
                    <path d="M42.3985075,84.4436047 C39.38911,84.4643291 36.9313408,82.0519815 36.9057908,79.052398 C36.8802409,76.0528145 39.2965628,73.5992195 42.3058795,73.5690102 C45.3151961,73.5388008 47.780606,75.94339 47.8156716,78.9428779 C47.8429219,80.392378 47.2842392,81.791911 46.2653553,82.8265117 C45.2464714,83.8611124 43.8529876,84.4438591 42.3985075,84.4436047 Z" id="Shape" fill="#000000"></path>
                    <path d="M5.49328358,47.6582849 C2.48044663,47.6582849 0.0380597015,45.2238332 0.0380597015,42.2207849 C0.0380597015,39.2177366 2.48044663,36.7832849 5.49328358,36.7832849 C8.50612054,36.7832849 10.9485075,39.2177366 10.9485075,42.2207849 C10.9485075,45.2238332 8.50612054,47.6582849 5.49328358,47.6582849 L5.49328358,47.6582849 Z" id="Shape" fill="#000000"></path>
                    <path d="M42.3477612,0.276162791 C43.7266155,0.245071468 45.0587713,0.774729146 46.0376012,1.74322253 C47.0164312,2.71171592 47.557608,4.0356083 47.5365672,5.41017442 C47.5365672,7.2488979 46.5524225,8.94794848 44.9548508,9.86731023 C43.3572791,10.786672 41.3889896,10.786672 39.7914179,9.86731023 C38.1938462,8.94794848 37.2097014,7.2488979 37.2097015,5.41017442 C37.1890389,4.04454031 37.723315,2.72861707 38.6910265,1.76166804 C39.6587379,0.794718999 40.9776289,0.258935129 42.3477612,0.276162791 Z" id="Shape" fill="#000000"></path>
                    <path d="M79.2783582,37.0614826 C82.1300434,37.0614826 84.441791,39.3657194 84.441791,42.2081395 C84.441791,45.0505597 82.1300434,47.3547965 79.2783582,47.3547965 C76.426673,47.3547965 74.1149254,45.0505597 74.1149254,42.2081395 C74.0906141,40.835876 74.6268067,39.512677 75.6004582,38.5421889 C76.5741097,37.5717007 77.9016217,37.0372503 79.2783582,37.0614826 L79.2783582,37.0614826 Z" id="Shape" fill="#000000"></path>
                    <path d="M23.4955224,74.0364826 C25.5144021,74.0365086 27.3339979,75.2500729 28.1041979,77.1102002 C28.8743979,78.9703275 28.4431611,81.1098202 27.0119605,82.5291111 C25.5807599,83.9484019 23.4321211,84.3673164 21.5698845,83.5901384 C19.7076478,82.8129603 18.4994273,80.9931083 18.5097015,78.980814 C18.5062751,77.6640596 19.031283,76.4006201 19.9677869,75.4719093 C20.9042908,74.5431985 22.1745107,74.0263492 23.4955224,74.0364826 L23.4955224,74.0364826 Z" id="Shape" fill="#000000"></path>
                    <path d="M5.42985075,65.8043605 C2.69196884,65.7903924 0.483172654,63.5680267 0.494837195,60.8390292 C0.506501736,58.1100316 2.73421549,55.9065058 5.47211741,55.9157911 C8.21001933,55.9250763 10.4226381,58.1436609 10.4156716,60.8726744 C10.4123186,62.1861935 9.88473368,63.4443978 8.94934159,64.3696336 C8.0139495,65.2948694 6.74763831,65.8110835 5.42985075,65.8043605 L5.42985075,65.8043605 Z" id="Shape" fill="#000000"></path>
                    <path d="M61.0604478,83.8492733 C58.3820568,83.8213811 56.2314652,81.6382633 56.2524031,78.9685102 C56.2733411,76.2987572 58.4579107,74.1494179 61.1364118,74.1632655 C63.8149128,74.1771131 65.9769966,76.3489241 65.9701493,79.01875 C65.9702603,80.3109148 65.4509744,81.5492571 64.528357,82.4569956 C63.6057396,83.364734 62.3567134,83.8661864 61.0604478,83.8492733 Z" id="Shape" fill="#000000"></path>
                    <path d="M10.2634328,23.5688953 C10.2702614,24.8442393 9.76413,26.0691354 8.85818201,26.9697636 C7.95223402,27.8703919 6.72201591,28.3716495 5.44253731,28.3614826 C3.66349519,28.4525389 1.97906921,27.5583078 1.06212476,26.0360013 C0.145180323,24.5136948 0.145180323,22.6114505 1.06212476,21.089144 C1.97906921,19.5668376 3.66349519,18.6726065 5.44253731,18.7636628 C6.72423018,18.7534557 7.95640267,19.2564414 8.86272531,20.1598195 C9.76904795,21.0631975 10.2736732,22.2913667 10.2634328,23.5688953 L10.2634328,23.5688953 Z" id="Shape" fill="#000000"></path>
                    <path d="M23.4828358,0.769331395 C24.7131518,0.752458538 25.8996179,1.22434843 26.7803102,2.08082672 C27.6610025,2.93730501 28.1634979,4.10793995 28.1768657,5.33430233 C28.1768657,7.9078449 26.0837969,9.99411337 23.5018657,9.99411337 C20.9199345,9.99411337 18.8268657,7.9078449 18.8268657,5.33430233 C18.8547459,2.79509117 20.9352345,0.755265013 23.4828358,0.769331395 L23.4828358,0.769331395 Z" id="Shape" fill="#000000"></path>
                    <path d="M79.2910448,65.677907 C76.7176172,65.6847257 74.6239333,63.6145864 74.6100455,61.0495481 C74.5961577,58.4845097 76.6673037,56.3919672 79.2406552,56.3711007 C81.8140068,56.3502341 83.9190337,58.4089132 83.9470149,60.9738372 C83.9709705,62.2176206 83.4902018,63.41838 82.6136758,64.303961 C81.7371499,65.1895421 80.5390923,65.6849527 79.2910448,65.677907 L79.2910448,65.677907 Z" id="Shape" fill="#000000"></path>
                    <path d="M79.1641791,28.0959302 C77.3298363,28.048808 75.7052811,26.9031359 75.0502072,25.1946666 C74.3951333,23.4861973 74.8390043,21.5525791 76.1742519,20.2980333 C77.5094996,19.0434875 79.4722363,18.7159525 81.1446238,19.4685941 C82.8170114,20.2212357 83.8685326,21.9053079 83.8074627,23.7332849 C83.7743239,24.9262839 83.2659463,26.0570245 82.394668,26.8756432 C81.5233896,27.6942618 80.3609362,28.1333678 79.1641791,28.0959302 L79.1641791,28.0959302 Z" id="Shape" fill="#000000"></path>
                    <path d="M65.6022388,5.44811047 C65.6022388,7.94483088 63.5716497,9.96882267 61.066791,9.96882267 C58.5619324,9.96882267 56.5313433,7.94483088 56.5313433,5.44811047 C56.5313433,2.95139005 58.5619324,0.927398256 61.066791,0.927398256 C63.5716497,0.927398256 65.6022388,2.95139005 65.6022388,5.44811047 L65.6022388,5.44811047 Z" id="Shape" fill="#000000"></path>
                    <path d="M8.88059701,78.9934593 C8.88754461,80.8494847 7.38491815,82.3603575 5.52285321,82.3696302 C3.66078827,82.3789029 2.14309121,80.8830708 2.13143291,79.0270689 C2.11977461,77.1710669 3.61856157,75.65641 5.48059701,75.6424419 C6.37983814,75.6288529 7.24677981,75.9763071 7.88628161,76.6065958 C8.52578341,77.2368845 8.88410696,78.0970436 8.88059701,78.9934593 Z" id="Shape" fill="#000000"></path>
                    <path d="M82.3738806,78.980814 C82.3790166,80.2299061 81.6280818,81.3588538 80.4717804,81.840412 C79.315479,82.3219703 77.9819642,82.0611214 77.0940185,81.179688 C76.2060729,80.2982546 75.9388996,78.9701547 76.4172747,77.8156422 C76.8956499,76.6611297 78.0251841,75.9080047 79.2783582,75.9079942 C80.0992035,75.901225 80.8885832,76.222385 81.470219,76.7997551 C82.0518548,77.3771252 82.3773007,78.1626146 82.3738806,78.980814 Z" id="Shape" fill="#000000"></path>
                    <path d="M5.41716418,8.45770349 C3.74770236,8.43681433 2.40931199,7.07460249 2.42323984,5.41049151 C2.4371677,3.74638053 3.79817241,2.40661483 5.46775151,2.41349064 C7.13733061,2.42036645 8.4871819,3.77129624 8.48731343,5.43546512 C8.48396767,6.24257344 8.15821226,7.01510871 7.58207537,7.58225476 C7.00593848,8.1494008 6.22688206,8.46443634 5.41716418,8.45770349 Z" id="Shape" fill="#000000"></path>
                    <path d="M79.3037313,8.23008721 C77.7342535,8.23008721 76.4619403,6.96190773 76.4619403,5.39752907 C76.4619402,4.39458897 76.9987464,3.46783408 77.8701492,2.96636401 C78.741552,2.46489394 79.8151645,2.46489394 80.6865672,2.96636401 C81.55797,3.46783408 82.0947762,4.39458897 82.0947761,5.39752907 C82.0950232,6.94236548 80.8533561,8.20250086 79.3037313,8.23008721 Z" id="Shape" fill="#000000"></path>
                    <path d="M42.3985075,50.2505814 C37.9526684,50.2644506 34.3360136,46.6858294 34.3173949,42.2544519 C34.2987762,37.8230744 37.8852332,34.2143854 42.3310329,34.1911382 C46.7768326,34.167891 50.4010773,37.7388752 50.4291045,42.1702035 C50.4494182,44.3062458 49.6123161,46.3617691 48.1040797,47.879355 C46.5958432,49.3969408 44.5416086,50.2506774 42.3985075,50.2505814 Z" id="Shape" fill="url(#radialGradient-3)"></path>
                    <path d="M42.3858209,68.3081395 C39.4267737,68.3132423 36.756721,66.5391211 35.6231659,63.8146814 C34.4896108,61.0902417 35.1163353,57.953332 37.210521,55.8695805 C39.3047067,53.785829 42.4529274,53.1666019 45.1842703,54.3012147 C47.9156133,55.4358275 49.6908671,58.1002893 49.680597,61.0497093 C49.6460417,65.0489994 46.398201,68.2806579 42.3858209,68.3081395 L42.3858209,68.3081395 Z" id="Shape" fill="url(#radialGradient-4)"></path>
                    <path d="M16.238806,42.1575581 C16.2594502,39.2309891 18.0473824,36.6052179 20.7683582,35.5054221 C23.4893341,34.4056263 26.6070782,35.0485639 28.6668598,37.1342421 C30.7266415,39.2199202 31.3224995,42.3372739 30.1764083,45.0317545 C29.030317,47.7262352 26.368159,49.4667893 23.4320896,49.4412791 C21.5064987,49.4346781 19.6633656,48.6615042 18.3125224,47.2936776 C16.9616792,45.925851 16.2151053,44.0767587 16.238806,42.1575581 L16.238806,42.1575581 Z" id="Shape" fill="url(#radialGradient-5)"></path>
                    <path d="M68.1776119,42.2207849 C68.1705991,46.1317224 64.9841408,49.2964982 61.0604554,49.2895123 C57.1367699,49.2825264 53.9616749,46.1064242 53.9686794,42.1954867 C53.9756839,38.2845492 57.1621354,35.1197666 61.0858209,35.1267442 C62.9710853,35.1267322 64.778766,35.874944 66.1094666,37.2060667 C67.4401671,38.5371894 68.1843571,40.3416577 68.1776119,42.2207849 Z" id="Shape" fill="url(#radialGradient-6)"></path>
                    <path d="M42.2970149,30.625 C38.3999794,30.5620081 35.2899488,27.3658309 35.3459044,23.4813464 C35.4018601,19.5968618 38.6026709,16.4910019 42.4999144,16.5395575 C46.3971579,16.5881131 49.5190839,19.7727478 49.4776119,23.6574128 C49.4678517,25.5353981 48.7020189,27.3308416 47.3519672,28.6408446 C46.0019154,29.9508475 44.1807043,30.6657041 42.2970149,30.625 Z" id="Shape" fill="url(#radialGradient-7)"></path>
                    <path d="M23.4828358,67.6758721 C20.7826608,67.6707359 18.351705,66.0441722 17.3243345,63.5551906 C16.296964,61.0662089 16.8756824,58.2054091 18.7904402,56.3077369 C20.7051979,54.4100647 23.5785797,53.8495676 26.0697686,54.8877927 C28.5609575,55.9260177 30.1789186,58.3583216 30.1686567,61.0497093 C30.1339754,64.7096068 27.1548012,67.6621977 23.4828358,67.6758721 Z" id="Shape" fill="url(#radialGradient-8)"></path>
                    <path d="M61.1492537,54.4994186 C64.7644974,54.527461 67.6724451,57.4713679 67.6443838,61.0748663 C67.6163224,64.6783647 64.6628779,67.5769235 61.0476331,67.5490255 C57.4323883,67.5211275 54.5243223,64.5773367 54.5522388,60.9738372 C54.5940234,57.3759999 57.5394751,54.4852854 61.1492537,54.4994186 Z" id="Shape" fill="url(#radialGradient-9)"></path>
                    <path d="M23.4955224,30.0559593 C19.9011479,30.0489687 16.9930159,27.1389547 17.0000247,23.5562583 C17.0070336,19.9735618 19.9265292,17.0748745 23.5209037,17.0818561 C27.1152782,17.0888376 30.0234177,19.9988442 30.0164179,23.5815407 C29.9886475,27.155592 27.0813045,30.0422132 23.4955224,30.0559593 Z" id="Shape" fill="url(#radialGradient-10)"></path>
                    <path d="M67.441791,23.5436047 C67.441791,27.0355213 64.6018062,29.8662791 61.0985075,29.8662791 C57.5952087,29.8662791 54.7552239,27.0355213 54.7552239,23.5436047 C54.7552239,20.051688 57.5952087,17.2209302 61.0985075,17.2209302 C64.5846409,17.2618949 67.4006929,20.0687975 67.441791,23.5436047 L67.441791,23.5436047 Z" id="Shape" fill="url(#radialGradient-11)"></path>
                    <path d="M42.3985075,84.4436047 C39.38911,84.4643291 36.9313408,82.0519815 36.9057908,79.052398 C36.8802409,76.0528145 39.2965628,73.5992195 42.3058795,73.5690102 C45.3151961,73.5388008 47.780606,75.94339 47.8156716,78.9428779 C47.8429219,80.392378 47.2842392,81.791911 46.2653553,82.8265117 C45.2464714,83.8611124 43.8529876,84.4438591 42.3985075,84.4436047 Z" id="Shape" fill="url(#radialGradient-12)"></path>
                    <path d="M5.49328358,47.6582849 C2.48044663,47.6582849 0.0380597015,45.2238332 0.0380597015,42.2207849 C0.0380597015,39.2177366 2.48044663,36.7832849 5.49328358,36.7832849 C8.50612054,36.7832849 10.9485075,39.2177366 10.9485075,42.2207849 C10.9485075,45.2238332 8.50612054,47.6582849 5.49328358,47.6582849 L5.49328358,47.6582849 Z" id="Shape" fill="url(#radialGradient-13)"></path>
                    <path d="M42.3477612,0.276162791 C43.7266155,0.245071468 45.0587713,0.774729146 46.0376012,1.74322253 C47.0164312,2.71171592 47.557608,4.0356083 47.5365672,5.41017442 C47.5365672,7.2488979 46.5524225,8.94794848 44.9548508,9.86731023 C43.3572791,10.786672 41.3889896,10.786672 39.7914179,9.86731023 C38.1938462,8.94794848 37.2097014,7.2488979 37.2097015,5.41017442 C37.1890389,4.04454031 37.723315,2.72861707 38.6910265,1.76166804 C39.6587379,0.794718999 40.9776289,0.258935129 42.3477612,0.276162791 Z" id="Shape" fill="url(#radialGradient-14)"></path>
                    <path d="M79.2783582,37.0614826 C82.1300434,37.0614826 84.441791,39.3657194 84.441791,42.2081395 C84.441791,45.0505597 82.1300434,47.3547965 79.2783582,47.3547965 C76.426673,47.3547965 74.1149254,45.0505597 74.1149254,42.2081395 C74.0906141,40.835876 74.6268067,39.512677 75.6004582,38.5421889 C76.5741097,37.5717007 77.9016217,37.0372503 79.2783582,37.0614826 L79.2783582,37.0614826 Z" id="Shape" fill="url(#radialGradient-15)"></path>
                    <path d="M23.4955224,74.0364826 C25.5144021,74.0365086 27.3339979,75.2500729 28.1041979,77.1102002 C28.8743979,78.9703275 28.4431611,81.1098202 27.0119605,82.5291111 C25.5807599,83.9484019 23.4321211,84.3673164 21.5698845,83.5901384 C19.7076478,82.8129603 18.4994273,80.9931083 18.5097015,78.980814 C18.5062751,77.6640596 19.031283,76.4006201 19.9677869,75.4719093 C20.9042908,74.5431985 22.1745107,74.0263492 23.4955224,74.0364826 L23.4955224,74.0364826 Z" id="Shape" fill="url(#radialGradient-16)"></path>
                    <path d="M5.42985075,65.8043605 C2.69196884,65.7903924 0.483172654,63.5680267 0.494837195,60.8390292 C0.506501736,58.1100316 2.73421549,55.9065058 5.47211741,55.9157911 C8.21001933,55.9250763 10.4226381,58.1436609 10.4156716,60.8726744 C10.4123186,62.1861935 9.88473368,63.4443978 8.94934159,64.3696336 C8.0139495,65.2948694 6.74763831,65.8110835 5.42985075,65.8043605 L5.42985075,65.8043605 Z" id="Shape" fill="url(#radialGradient-17)"></path>
                    <path d="M61.0604478,83.8492733 C58.3820568,83.8213811 56.2314652,81.6382633 56.2524031,78.9685102 C56.2733411,76.2987572 58.4579107,74.1494179 61.1364118,74.1632655 C63.8149128,74.1771131 65.9769966,76.3489241 65.9701493,79.01875 C65.9702603,80.3109148 65.4509744,81.5492571 64.528357,82.4569956 C63.6057396,83.364734 62.3567134,83.8661864 61.0604478,83.8492733 Z" id="Shape" fill="url(#radialGradient-18)"></path>
                    <path d="M10.2634328,23.5688953 C10.2702614,24.8442393 9.76413,26.0691354 8.85818201,26.9697636 C7.95223402,27.8703919 6.72201591,28.3716495 5.44253731,28.3614826 C3.66349519,28.4525389 1.97906921,27.5583078 1.06212476,26.0360013 C0.145180323,24.5136948 0.145180323,22.6114505 1.06212476,21.089144 C1.97906921,19.5668376 3.66349519,18.6726065 5.44253731,18.7636628 C6.72423018,18.7534557 7.95640267,19.2564414 8.86272531,20.1598195 C9.76904795,21.0631975 10.2736732,22.2913667 10.2634328,23.5688953 L10.2634328,23.5688953 Z" id="Shape" fill="url(#radialGradient-19)"></path>
                    <path d="M23.4828358,0.769331395 C24.7131518,0.752458538 25.8996179,1.22434843 26.7803102,2.08082672 C27.6610025,2.93730501 28.1634979,4.10793995 28.1768657,5.33430233 C28.1768657,7.9078449 26.0837969,9.99411337 23.5018657,9.99411337 C20.9199345,9.99411337 18.8268657,7.9078449 18.8268657,5.33430233 C18.8547459,2.79509117 20.9352345,0.755265013 23.4828358,0.769331395 L23.4828358,0.769331395 Z" id="Shape" fill="url(#radialGradient-20)"></path>
                    <path d="M79.2910448,65.677907 C76.7176172,65.6847257 74.6239333,63.6145864 74.6100455,61.0495481 C74.5961577,58.4845097 76.6673037,56.3919672 79.2406552,56.3711007 C81.8140068,56.3502341 83.9190337,58.4089132 83.9470149,60.9738372 C83.9709705,62.2176206 83.4902018,63.41838 82.6136758,64.303961 C81.7371499,65.1895421 80.5390923,65.6849527 79.2910448,65.677907 L79.2910448,65.677907 Z" id="Shape" fill="url(#radialGradient-21)"></path>
                    <path d="M79.1641791,28.0959302 C77.3298363,28.048808 75.7052811,26.9031359 75.0502072,25.1946666 C74.3951333,23.4861973 74.8390043,21.5525791 76.1742519,20.2980333 C77.5094996,19.0434875 79.4722363,18.7159525 81.1446238,19.4685941 C82.8170114,20.2212357 83.8685326,21.9053079 83.8074627,23.7332849 C83.7743239,24.9262839 83.2659463,26.0570245 82.394668,26.8756432 C81.5233896,27.6942618 80.3609362,28.1333678 79.1641791,28.0959302 L79.1641791,28.0959302 Z" id="Shape" fill="url(#radialGradient-22)"></path>
                    <path d="M65.6022388,5.44811047 C65.6022388,7.94483088 63.5716497,9.96882267 61.066791,9.96882267 C58.5619324,9.96882267 56.5313433,7.94483088 56.5313433,5.44811047 C56.5313433,2.95139005 58.5619324,0.927398256 61.066791,0.927398256 C63.5716497,0.927398256 65.6022388,2.95139005 65.6022388,5.44811047 L65.6022388,5.44811047 Z" id="Shape" fill="url(#radialGradient-23)"></path>
                    <path d="M8.88059701,78.9934593 C8.88754461,80.8494847 7.38491815,82.3603575 5.52285321,82.3696302 C3.66078827,82.3789029 2.14309121,80.8830708 2.13143291,79.0270689 C2.11977461,77.1710669 3.61856157,75.65641 5.48059701,75.6424419 C6.37983814,75.6288529 7.24677981,75.9763071 7.88628161,76.6065958 C8.52578341,77.2368845 8.88410696,78.0970436 8.88059701,78.9934593 Z" id="Shape" fill="url(#radialGradient-24)"></path>
                    <path d="M82.3738806,78.980814 C82.3790166,80.2299061 81.6280818,81.3588538 80.4717804,81.840412 C79.315479,82.3219703 77.9819642,82.0611214 77.0940185,81.179688 C76.2060729,80.2982546 75.9388996,78.9701547 76.4172747,77.8156422 C76.8956499,76.6611297 78.0251841,75.9080047 79.2783582,75.9079942 C80.0992035,75.901225 80.8885832,76.222385 81.470219,76.7997551 C82.0518548,77.3771252 82.3773007,78.1626146 82.3738806,78.980814 Z" id="Shape" fill="url(#radialGradient-25)"></path>
                    <path d="M5.41716418,8.45770349 C3.74770236,8.43681433 2.40931199,7.07460249 2.42323984,5.41049151 C2.4371677,3.74638053 3.79817241,2.40661483 5.46775151,2.41349064 C7.13733061,2.42036645 8.4871819,3.77129624 8.48731343,5.43546512 C8.48396767,6.24257344 8.15821226,7.01510871 7.58207537,7.58225476 C7.00593848,8.1494008 6.22688206,8.46443634 5.41716418,8.45770349 Z" id="Shape" fill="url(#radialGradient-26)"></path>
                    <path d="M79.3037313,8.23008721 C77.7342535,8.23008721 76.4619403,6.96190773 76.4619403,5.39752907 C76.4619402,4.39458897 76.9987464,3.46783408 77.8701492,2.96636401 C78.741552,2.46489394 79.8151645,2.46489394 80.6865672,2.96636401 C81.55797,3.46783408 82.0947762,4.39458897 82.0947761,5.39752907 C82.0950232,6.94236548 80.8533561,8.20250086 79.3037313,8.23008721 Z" id="Shape" fill="url(#radialGradient-27)"></path>
                </g>
            </g>
        </g>
    </g>
</svg>